<mxfile host="app.diagrams.net" agent="Mozilla/5.0 (Windows NT 10.0; Win64; x64) AppleWebKit/537.36 (KHTML, like Gecko) Chrome/128.0.0.0 Safari/537.36" version="24.7.12">
  <diagram id="C5RBs43oDa-KdzZeNtuy" name="Page-1">
    <mxGraphModel dx="880" dy="1595" grid="1" gridSize="10" guides="1" tooltips="1" connect="1" arrows="1" fold="1" page="1" pageScale="1" pageWidth="827" pageHeight="1169" math="0" shadow="0">
      <root>
        <mxCell id="WIyWlLk6GJQsqaUBKTNV-0" />
        <mxCell id="WIyWlLk6GJQsqaUBKTNV-1" parent="WIyWlLk6GJQsqaUBKTNV-0" />
        <mxCell id="0LGMieh8fFYEPsuU7eUb-0" value="Persona" style="swimlane;fontStyle=1;align=center;verticalAlign=top;childLayout=stackLayout;horizontal=1;startSize=26;horizontalStack=0;resizeParent=1;resizeParentMax=0;resizeLast=0;collapsible=1;marginBottom=0;whiteSpace=wrap;html=1;" vertex="1" parent="WIyWlLk6GJQsqaUBKTNV-1">
          <mxGeometry x="370" y="-10" width="250" height="242" as="geometry" />
        </mxCell>
        <mxCell id="0LGMieh8fFYEPsuU7eUb-5" value="+ dni: string" style="text;strokeColor=none;fillColor=none;align=left;verticalAlign=top;spacingLeft=4;spacingRight=4;overflow=hidden;rotatable=0;points=[[0,0.5],[1,0.5]];portConstraint=eastwest;whiteSpace=wrap;html=1;" vertex="1" parent="0LGMieh8fFYEPsuU7eUb-0">
          <mxGeometry y="26" width="250" height="26" as="geometry" />
        </mxCell>
        <mxCell id="0LGMieh8fFYEPsuU7eUb-1" value="+ nombre: string" style="text;strokeColor=none;fillColor=none;align=left;verticalAlign=top;spacingLeft=4;spacingRight=4;overflow=hidden;rotatable=0;points=[[0,0.5],[1,0.5]];portConstraint=eastwest;whiteSpace=wrap;html=1;" vertex="1" parent="0LGMieh8fFYEPsuU7eUb-0">
          <mxGeometry y="52" width="250" height="26" as="geometry" />
        </mxCell>
        <mxCell id="0LGMieh8fFYEPsuU7eUb-7" value="+ apellido: string" style="text;strokeColor=none;fillColor=none;align=left;verticalAlign=top;spacingLeft=4;spacingRight=4;overflow=hidden;rotatable=0;points=[[0,0.5],[1,0.5]];portConstraint=eastwest;whiteSpace=wrap;html=1;" vertex="1" parent="0LGMieh8fFYEPsuU7eUb-0">
          <mxGeometry y="78" width="250" height="26" as="geometry" />
        </mxCell>
        <mxCell id="0LGMieh8fFYEPsuU7eUb-8" value="+ edad: int" style="text;strokeColor=none;fillColor=none;align=left;verticalAlign=top;spacingLeft=4;spacingRight=4;overflow=hidden;rotatable=0;points=[[0,0.5],[1,0.5]];portConstraint=eastwest;whiteSpace=wrap;html=1;" vertex="1" parent="0LGMieh8fFYEPsuU7eUb-0">
          <mxGeometry y="104" width="250" height="26" as="geometry" />
        </mxCell>
        <mxCell id="0LGMieh8fFYEPsuU7eUb-6" value="+ sexo: string" style="text;strokeColor=none;fillColor=none;align=left;verticalAlign=top;spacingLeft=4;spacingRight=4;overflow=hidden;rotatable=0;points=[[0,0.5],[1,0.5]];portConstraint=eastwest;whiteSpace=wrap;html=1;" vertex="1" parent="0LGMieh8fFYEPsuU7eUb-0">
          <mxGeometry y="130" width="250" height="26" as="geometry" />
        </mxCell>
        <mxCell id="0LGMieh8fFYEPsuU7eUb-2" value="" style="line;strokeWidth=1;fillColor=none;align=left;verticalAlign=middle;spacingTop=-1;spacingLeft=3;spacingRight=3;rotatable=0;labelPosition=right;points=[];portConstraint=eastwest;strokeColor=inherit;" vertex="1" parent="0LGMieh8fFYEPsuU7eUb-0">
          <mxGeometry y="156" width="250" height="8" as="geometry" />
        </mxCell>
        <mxCell id="0LGMieh8fFYEPsuU7eUb-9" value="+ saludar(): void" style="text;strokeColor=none;fillColor=none;align=left;verticalAlign=top;spacingLeft=4;spacingRight=4;overflow=hidden;rotatable=0;points=[[0,0.5],[1,0.5]];portConstraint=eastwest;whiteSpace=wrap;html=1;" vertex="1" parent="0LGMieh8fFYEPsuU7eUb-0">
          <mxGeometry y="164" width="250" height="26" as="geometry" />
        </mxCell>
        <mxCell id="0LGMieh8fFYEPsuU7eUb-10" value="+ obtenerNombreYApellido(): void" style="text;strokeColor=none;fillColor=none;align=left;verticalAlign=top;spacingLeft=4;spacingRight=4;overflow=hidden;rotatable=0;points=[[0,0.5],[1,0.5]];portConstraint=eastwest;whiteSpace=wrap;html=1;" vertex="1" parent="0LGMieh8fFYEPsuU7eUb-0">
          <mxGeometry y="190" width="250" height="26" as="geometry" />
        </mxCell>
        <mxCell id="0LGMieh8fFYEPsuU7eUb-3" value="+ modificarEdad(edad): void" style="text;strokeColor=none;fillColor=none;align=left;verticalAlign=top;spacingLeft=4;spacingRight=4;overflow=hidden;rotatable=0;points=[[0,0.5],[1,0.5]];portConstraint=eastwest;whiteSpace=wrap;html=1;" vertex="1" parent="0LGMieh8fFYEPsuU7eUb-0">
          <mxGeometry y="216" width="250" height="26" as="geometry" />
        </mxCell>
        <mxCell id="0LGMieh8fFYEPsuU7eUb-4" value="" style="shape=image;verticalLabelPosition=bottom;labelBackgroundColor=default;verticalAlign=top;aspect=fixed;imageAspect=0;image=data:image/png,iVBORw0KGgoAAAANSUhEUgAAAeoAAADeCAYAAADy8UM1AAAAAXNSR0IArs4c6QAAAARnQU1BAACxjwv8YQUAAAAJcEhZcwAADsMAAA7DAcdvqGQAAGzXSURBVHhe7d0JfAzn/wfwT3Y3m819ORKCyElcQVyNoujP3ajWVRKKUlcdRUuLoqT1c7SOVuVfItRNf6JRbdwVVVKRiERCJKGJUERF2N3s7vc/u5lcRA6i3fJ9vzqaeWbmmXmemZ3vPLPPzpiQAIwxxhgzShLx/4wxxhgzQhyoGWOMMSPGgZoxxhgzYs8kUGtiN+GL8FRoxPF/Lx3UyvtQPcuC6NRQ3lc9B3XF2KN0aiXuP9MPEPt7aKG6L5wLteIo+1s9faDW/YWkn9Zi+Y5EMUFgqcHx93tizO5MIdQ9hZwEfP/5BAzq2QWvdOmDoVNX4ECaSpz4N1Adw7RGjmj/WYJwmD6hcsqgOjYNjRzb47OEv/sToEPWvkV4d9QojDIM7+CdMRMxY2EIIi/dE+dh7GmocGxaIzi2/wx/++GtTULYxMGYsTP9yT+7xWiTwjBx8AzsTH+BIlXxOry/GQMdHNB/Y444kf2dnjhQq6/+gnVzgtDJsy4a9RiHZQeuiFMAmUcQvln6Eo68NwmbM54sVOtu/IgpHdohcG0SbFt1Q68uDUHHPkWvl97ENxf+HVfoxl0GQnbMHqzbcgLXJTLIZFJItdlI2DUbfXzbCBdZGU93kcWePeFEumHiQEzdklolwei5Qg9wOyMT17KVYsLToQe3kZF5DVWTnRZJGyZi4NQtSP1HdlwF11/FdcjH61PQ/zyr8jR08b/dyLvDUJr11f/RhBZm5DJ6vzhNpEmiJS9bk8/0E6QUkyruHkWOrU/yeoG0I1MrpgnuHqb3vEzJKeh7uismPVPKwzTRTUF+C84LJa6sipVBeXgiuSn8aMH5yq/h6Wgo4dPWJK/5NoU/EJP0NGm07vWaZOo1hX5RiWnMOKmiaJq3gprNjqE8Mcm4KOnwRDdS+C2gv/3wNmoqiprmTYpmsynmH9lxT7D+3DAKMDOjPuuf4sxr9Mer8XrCFrUUblP34cLRjVg4uhPqmpuI6cVIPTBgQGukb9+IXyp7QaY8jC3fZ6Dx29PR17nYJlq3x4j3BqGF6Z/4Q2iQKiOmoJXfcMyc2Q2eDvbo/MVlw2zKxK2Y2sMHTtaWsK/jh/4LDyKrsHmoROLWqejh4wRrS3vU8euPhQezKth6VCN1z2z086sHe0t93i3Qb04ErpR2eVjBMjxMnboHs/v5oZ69JSzt66BFvzmIKLaC3HOhGN+1AWpaW8Cmpjc6jwlBTLG7UWWXvQKk9fBmQBtI084h7rZ+wbLqS4mIKa3gN3wmZnbzhIN9Z3xxWVvuNubGb8Sk7o3gbGMJG6eG6DI2BL//JU5URmBKa39MWvk1xnTygKNQz46eXTF9z9Wiq3B1KvbM7ge/evaw1G9Ti36YE3GlAlfpOlyLnI9+vrVha2mHOq0GY8HHgfDrOi9/8r3vMb5la0zdV3TAqk/MQ9eWgVh/VaxEZSK2Tu0BHydrw/7x678QBx9bwTrcOfU1RnXyRg1hf9i5NEPvGduRVJB9bjw2TuqORs42sLRxQsMuYxFSWBH6qpiC1v6TsPLrMejk4SiU1RGeXadjz1UtVIc/QocWgxByUYlzK16Db8ePC5Z6/P6qSN3qsnDw0zfgW9sGVvZ10TpwCRa90xqd5/6SP/2J6z5fmfteUN6xU0LuOYSO74oGNa1hYVMT3p3HIKRgZvVpBHdviUFrL+dvWznluvf9eLRsPRVFu16NE/O6omXg+vyx08Ho3nIQ1grHt0FZx0FZ9aw6jI86tMCgkItQnluB13w74uMj+V+Flf3ZzcW50PHo2qAmrC1sUNO7M8aExOBxVfPY88jj1q/f5lZ+GD5zJrp5OsC+8xe4/OChOgQh58yXeKtVHdhZ2aJ28zfwaeG54B6+H98SrYW4UFSFJzCva0sErr9axvGai/iNk9C9kTNsLG3g1LALxob8jqJDoqxyqxA1vwv83liNhOe9G4QYsJ+c5hIt9lc82qIW5MXMIV9FQ5pxsnJNM82lxeRv5khDdxdv6j0q97t+ZGkipZovj6dloVsp8vxd0t4Mp5FuVuQ1+Evad+osHd84nlraOlCPNanCElq6GT6S3Ky8aPCX++jU2eO0cXxLsnXoQWtSS7nkf6hFnXd6DrWwcKb/zI+guJRLdGrzu9TMwo56hfyRP38xFS1DiRZ13mma08KCnP8znyLiUujSqc30bjMLsusVQn/oG+WqEzTDx4zqBCyln8+ep+jwBdS9lpzcJxykXGFy2WV/2GNa1MLVdswcXzK1G0jbcsqrr1z6rp8lmUhr0svjl1Ho1kg6f7OcbczaSUF1zck1IJjCT8fTmX3LaICnOTn1XUf5WX5H/SxNSFa7K3289TidPR1BwT1rkWntUbTPsJ15dHpOC7Jw/g/Nj4ijlEunaPO7zcjCrheFGCrp8TSXVtGrdmbkMeAL2h8TT6f3LKLedaQkdRmdP8OdddRbYUVvbNZvaT7l/tHkovCnxZeEjdPepPCRbmTlNZi+3HeKzh7fSONb2pJDjzX52/4QbXoove5kSY2GfU0HzsbTqf8toJ4uFtRw6lF9RdDOoLpk7hpAweGnKf7MPlo2wJPMnfrSOjGz/ONbRrW7fkxbj5+l0xHB1LOWKdUetY+0t5Lo5OEV1M/JlOoNWUtHTibp11j2/iq3bjWU+k0vclR4UP/l+uWjaPvsruQslZDzyAhhemXrvmSLutx9X87xXZKKTszwIbM6AbT057N0PjqcFnSvRXL3CXRQP3OJz2555dLv+t6ksHqDina9kvaPdiGF/+L8seKf0/KOg7LqOfcWJZ08TCv6OZFpvSG09shJSrqtLfezqzoxg3zM6lDA0p/p7PloCl/QnWrJ3WmCobAPKes8klf6+gu2WVrzZRq/LJS2Rp6nu8Xr0NCiBklrd6d5u36lWKFMS/rVJ3m1AFp3Rb/v79C63gqyemNz0b5S7qfRLgryX3zpscdr1s4gqmvuSgHB4XQ6/gztWzaAPM2dqO+6VMM5t+xy59HZ1UEUMOE7StHP/Bx7poGacjbS65YWFLChcrdL8s7OoeZyFxq9v+yb5oYTmfwVWlF4ktDQ5eWdyNI5kHZni0nCYbN/jHBCbL9EmHyZlneyJOfA3VQ0eT+NEU4e7ZekiAnFPBSoVSlHaNuO45RecFBoLtLnL5lR7Xd+FBOKVLQMJU4AqhQ6sm0HHS9aAV38/CUyq/0O/ajPJns99TG3oG5rrgmHeP70lIgVtDjsJN3WllP2R+QHalPTl2j6rnAKDxeG3Vvo69lvUEMrBXlPjKQ75dZXfqCWv7Ii/0JCr5xtTFrsT+bOQ2jnbcNEg5z9Y8jVrCl9FJ0nZKk/Ycip88pMcXmiBz+MICezdvRZkmEvUMqRbbTjeLphn+hpLn5OL5nVpncMlfQ4Gjr/aSsycxLWXVgYDcXP9yOzCgZqzeXl1MnSmQKLKliojjHCiaY9LXnkTKFfX2tS1BX23T0xSUi7vGEMdX97LWmShAs5c2caUrIiaIyrGTX9KNpwazD/+O5MKwu/OnlAP4xwIrN2n+WPPnwrsbz9VV7dapKE41lBNd7aQYVblRdHn7SUiwGtsnVfPFBXYN+XeewYEorJpvV9zMmi2xq6Jk7TpETQisVhdFI/c/HPbrnlqlygLvc4qMAxXPLWc/mf3ez1fcjcohutKSosRaxYTGEni1VmgfLOI4+sXyBu8ysr/ijc5hJ1aAjUcuqyqqhM2hsb6HU7c3rly3QhrexAbfDI8ZokxA5zch6ys2i/UI5Qblcya/oR5R8SlSj3c+zpe32XRWYDG0st7mbfERMqxsTUFFITHbQVuZ8msYK1TUEx8nA2Og4qyVVEzJ2MyZP1wyzsSNZBk5okTD6L6DgVJFcjMNcwTRhm7UCyToPUpGQxj8eTu7VH+xqx+GLIq2jXvDF8fDph4ck8YTsf3dBKlaGA3A3t29dA7BdD8Gq75mjs44NOC08iT8hEq3/Qq003jAhyRdRUP7R9fTQ+XvE9bvqOxvTANrCXlFP2x9HGYsPU9/Dee5MwafpcrDmkQaf5PyByWVfYVrC+JFbWKNwFZW6jStjGeJBvR7xiL84vsPLvgBbyZJyJuSumSGBpZVXY09HEXAEF1FDn6StBDrf27VEj9gsMebUdmjf2gU+nhTiZJ9SRoZIeJw9JFy4DPm3xko2YJFAozFDKFzelyjsbjTiVBFcj5or1OxmzdiRDp0lFUvLD995UOB8v1JFPK7S2FJMgRf2gNfhx3TtQCXnFky86lqwIdGghR/KZGBTUBCSWsLIqrAmYKxSAWi2OP6RC+6uMus1LQuIlgk/rNrAVp0Mi7FvLgrmftO71KrDvyzx2xAUK2aDbiCC4Rk2FX9vXMfrjFfj+pi9GTw9Em4dnLrdclVOx46CsY/hh5X92bbqNQJBrFKb6tcXroz/Giu9vwnf0dAS2KVaZBco7jzyWBFbWNoXb/CgTWFgWlUni4IcWHjqkJCYLJXgCKuF4jSf4dnwFRaWwgn+HFpAnn0H+IVGJcj/HnuxIrTAddEKgMpHKxPGKkdZ0Rk1pNjIzin15ZaBD9vlD2BMZhz9L/VpQB6VSOImZyiDRaqDR5A8KnwCMCeogTFYif7IEWnGaRqOAT8AYBHVwEfN4vPvHZ6F7r0VI8Hobn63fib37tmGSn6k4taQnKsP945jVvRcWJXjh7c/WY+fefdg2yQ+Fa5A4o++a33H+58/R3yMPMRsmoVOD5hixJQ3a8sr+GCbVB+D/LqQiNfUyLl9Kwtnj/8NXU7qgjn6XPUl9lbmNMOQBmWlRmfQkMphKyLCO8t3H8Vnd0WtRArze/gzrd+7Fvm2T8JjdUIL+gkp/ASUU54nolErhVKtfXltYvxqFDwLGBKGDi1Scq4hWI5RYJhPCcyn0y0Iod8mKEKpGAtLvv1KP73I85fGt7w2s1ZlAWnKjinnyutcrd9+Xc+yUJIFz3zX4/fzP+Ly/B/JiNmBSpwZoPmIL0h6ZubxyVU5lj4Pylf/ZlTj3xZrfz+Pnz/vDIy8GGyZ1QoPmI7Dl0cKWfx6pMvnHr1bY5iejL6f+kCi5ZRLhGJGQvm51lSv3c+zZBuoHt3H7gTmq1yy8jq0YO+Gqu6UJft27F5nFT1i6G/j+w34YvOgQcku9MpShvpsLJKaNMHTpKqxaVTSsXDRUmFwfbi4SmDYaiqXFpq1atRKLhjYW83gcNWL3hCPZNQgL5ryFjr4N4O7qCMXjmmNPUAZ17B6EJ7siaMEcvNXRFw3cXeFYbAXaywewbm0kcpoPwfT/rkfE6Ths6nsXm5eE4rymnLI/iSeor7K3UQ7vhu6ghBicKdbBUJMQiwRlLXh5V+A4UcdiT3gyXIMWYM5bHeHbwB2ujooKtIr19VMXlByP+GI/xdfqdCjcDcIFpcxEaMUUi5LaG9fxp3hOkNV3g4vEFI2GLi1WF8KwchGGNn74YlQGNw9hfSkXkCicg/Pp8OehLzB90R7IvRvCnRIQU7IiEJugRC0vb9g+ySfzqY5vgcwN9esQLickCEe7iDRFrcAnrnu98vd92ceOuEAB7WUcWLcWkTnNMWT6f7E+4jTiNvXF3c1LEPrwzOWVSyAVLqhMdELgKNz1Wty4/mcpFwiVPQ4qorzPrhaXD6zD2sgcNB8yHf9dH4HTcZvQ9+5mLAk9n59FMeWdR56G4WKrgPICLqQBddzqCyWQCtekJtAJ04uq8AauF3x4SiP3RkN3QkLMmaIOaELwTohNgLKWF7xthX1WiXI/z55poFZfSMQl8kazJmZiSgVJ3fD2h4Go/vNsDF/4E9LuC2nq6zi5ZiIWRloJV66DULfUC1c5/AKD0DIrFNNm7UWafu+rriJyXl90n3VEmOyHwKCWyAqdhll70wwHh+pqJOb17Y5ZRx7Xf7KAFDWca0CSfgThJ65DrczE8VUz8U10HjR5pdz4eYIySGs4o4YkHUfCT+C6WonM46sw85to5GnyDLeW6MEprJ0yAlNW/oZbwvGvy81A+nUlZLYOsJGUU/Yn8QT1VfY2yuAbOBL+t8Iwc8EBZApnTc2NKHz+QQhSmwzHCP8KHCfSGnCuIUH6kXCcuK6GMvM4Vs38BtF5Ghh2g+4W9n86ElM3JOTPX0iGZm/2Q+Os7zDv8yhD8FVd/QkrNkUXPRVO7gUv1zz8tmszkoT9pb5xEmt3FE2X+wUiqGUWQqfNwt78CsbVyHno230WHq0OOVoMfgu+f4Rh/qpoZAsXBPcu/Q9zp8zGjlThgsA3ECP9byFs5gIcyK8IRH3+AUJSm2D4CH9U6BMjsYSFBSE74wpy9N+xPNXxLZD54M03fHF98zwEH8mCWpeL5F3BWHdaPL7Lq/sylb/vyz52xGwK0AOcWjsFI6asxG/5MyMj/TqUMls4PDxzeeUSyL284Jr3G3ZtTsJ9IZzfOLkWO6IfvjrIV7njoDQSWFpYgLIzcCVH39ov77NLeHBqLaaMmIKVv90SwrYOuRnpuK6Uwdah2Pc4ovLOI4+u35BYAWocWTETO5JzoVNnInLBIuzOaYV+AR7C2VEOLy9X5P22C5vzPzw4uXYHSlThw8erzBeBI/1xK2wmFhzIFHLX4EbU5/ggJBVNho+Av1l55dbhdvR2rPshEbn5a3h+id9VP7nHdibTUMLC1mTRYi7FFnRYqJQHlPjdeHq5tjlJZHKSm0rItFpzGrLiZGFHGUNnG0UfKvnTvjy6vGsqdXIxJ1NzW7I1NyOHpkPoqzM54uTLtGtqJ3IxNyVzW1syN3OgpkO+ooLJJTzUmYzu/kqLe9YjcxMTMjExpWp+QTS4rRXJS+2spVd+GUr+jvou/bq4J9Uz1+dvIszrR0GD25KVvKCzUi7FhQyjFtXkJDWzJAtTU7JrPIhWnynorVRO2Ut4XK/vh5RZX/mdyRR91hf7XXt526ihK3s/pM51hG1UWJG5qRk5+0+kbZfEXwYYOrUoSvxeU3lwHLmataT58fkH0t1fF1PPeuaGOjIxrUZ+QYOprZU8v8OU5jItaW9OHpOOGuYt6R7FrO5PXlZSMrUQts2uAXVq40KmBZ3JSEtXdoymJrZSkgjbbapworZdW5KjmdjrW5B3eRdN7eQibLc52dqak5lDUxry1RkqrYb1nXaSvnuXWtc0E/aHUF6ZLTV88ws6eSd/qubKXvqwcx0hLwVZCfVr5uxPE7ddEpbK9+jxraSD41zJrOV8cVxF0QtfIjuJCUntB+cnlbW/KlC3lBtLawZ6k7VUOFYN+64HdXI3pVpip6sy6/4RD/+Oupx9X+6xU1JuXAgNa1GN5FIzsrQQ9pddYxq0+oywlwUPf3bLKRdpr9CO0U3IVpyucGpLXVs6kllpvb4FZR4HFahnVfRCeslOQiZSexq8Pb8Hc5mf3dw4ChnWgqrJpWRmaSFsox01HrSaSq+a8s4jpay/lG1+pDOZuQO9EjiQfGyFuhbOZVJrbxr0zTnhLJdPe2UHjW5iS1KJfrqCnNp2pZaOZkWdyUo7XjVXaO+HnamOcLwqrISymzmT/8RtVHRIlFXuu7T5TVuSuU2kI5X7YdG/ztMH6sd5EEXTGznQq6vzu9k/MU0OZV6Io9iEK5RdmYCvuUsZiXEUn3JTOF08SnM3gxLj4inlZlk9hUuTR9npCRR/8XrhAVquSpYhLzudEuIv0vXHrUB1m9ITHl+28sr+JCpdXxXYxj8Sz1FCenZ+D9DKyssW8o+niw9XUs7/aFgtO3ptXZaY8CjN3T8oMf4CZd7Lo0uL/UlRGKjzaXOE6XHnKe324z79GrqbkUhx8SlUoeoQ6iJN2Naka/eKetQWEvL6I5HOJaRX7vguJByPqfF07tINcTzfkx/fSlIq9dskHONJ1+ie8jhN9TKjhjNOitMFj6v7iipv35d37JSgotvC57H8fVGBcgl7J0fYF3Hn0+ixu76ESh4HD8nLTqX4c5foRvFly/nsqm4L54YK7tfyziOlrr8CtPcy6UJ8Iv1xt5QzuzZH2LdxdD7tduEFZ0mPO16Fz9y5BEp/zIfgceXW3rlClzKLfqXxvDLR/yM2rquQGglLu6Hz1g4I/2UeWivEZMaesXs/TUDHhdWxev9ctLUQEx9Li5T/dkTjFY3w4Oo3YtqLTIer3/ZD19C6mDpzCF5yUSHm2xmY/K0GEw9HYV6rSn6FZTSe13KxF8UzCdSq4x+i7dsX8O6e7RjjIxdTGft76L9yq1jnCy0uL3kFTVc1wr20r8W0F1xOHL779BN8ue0wzv9pgmoNX8GwOUvw8Wv18a/+JD+v5WIvhGcSqHXXYnFG1QB+rnylyhhjjD2NZ3TrmzHGGGNV4Zn+PIsxxhhjT4cDNWOMMWbEOFAzxhhjRuzFDNS6LOwd1xg27l0w4p138O7EGZi/+nucfehxd7qsfVj07lgs2nfN0JO4iA5Z+xZh7LQN4rj+8borMHbsFzh2T0xgjDHGqsCLGagpG3G/J+MBpJBKpdDdu4wjK0eirc/LmLEvszAoU3YM9qxbgzmjp2NX0RvcBYQ7seFYv/kXcRxQJ/2E9ev3I/GBmMAYY4xVgRf41rcJHDtOxMo1a7B2/U4cOh+PnQPvYfWwMfi2xJtZJKBr2zDtwz24UeFn4jLGGGNVg7+jLiCthd6fLcJgs0isXhdX9KIGE0f0GNYLeZunYda+Ww/dAmeMMcaeLaMN1LmJWzDttVZo2KA5uo7+Cr/d/htCpFV7dPCTIenUKRStToIaAYuxqFcuNk6djZ+zxWTGGGPsb2CcgTonEtP7DMOyvdG4kHQWB0Mmos+ojch45rFaATt7S+ju3EZ28cfASOoicOl8vJq9DpPnHsRfYjJjjDH2rBlloFbHRCAyPa/ohf7Q4WbkXhzTv6f1GctT58HETAGzh96zLnUbiS8+6Yg/Q97D/KMVeuksY4wx9tSMMlBLq9eEo6RkpJRUq4maUnHkWdFeRmJyLuzqu6PGIzUjhceYLzG7XSa+fm8hTiv5yauMMcaePeMM1N6jMHdCc9iJwdrEwhOD5r+Pjs/4HR/ZB1ZhY1wN9HyjI0p9Q6KsASasmIVW6aswc10adyxjjDH2zBnnd9SS6uixNAqxUbsRFroNh2JOY1Ogm9CmrUqE+3+m42JSEhJjf8GuZaPwnyGh0A5agnm9bMV5HiVrPAkrZjTHXxk3UPLxKCXdi9+Db3fF4A5Hc8YYY0/BOAO1gQJ12/ZF4LAB6OT1+MD5NHJ+mIimDRuiabsATNmYiVZz9+OXdQNRp8xakaPZ+yvwvp8FHvoauxgVolZOwLujl+LQ3/C9OmOMsecXv+byWcnNRModa9SvbW3MV0OMMcaMHAdqxhhjzIhxY48xxhgzYhyoGWOMMSPGgZoxxhgzYhyoGWOMMSPGgfofoYXq/n2oyvohNmOMMSZ4MQO1Lgv7Fr2LsYv24dpDDyTRZe3DorHTsOFc4Ysuq979zRjo4ID+G/mZ4Ywxxsr2YgZqykbMnnVYM2c0pu/KKvEoULoTi/D1m/HL1WcYqBljjLEKeqFvfUvoGrZN+xB7bvBzPhljjBmnFzhQm8CxxzD0ytuMabP24VYZsTo3fiMmdW8EZxtL2Dg1RJexIfi94KXUynC85/cSxny6AIP86sLe0go1GvbCnB8v4MTKYWhX3x6Wlo5w7zAWm5LU4kJ6hJwzX+KtVnVgZ2WL2s3fwKcHC1r3SkRMaQW/4TMxs5snHOw744vLWiE5EVun9oCPkzUs7evAr/9CHMziiwzGGHueGW2gzk3cgmmvtULDBs3RdfRX+O121QckSY0ALF7UC7kbp2L2z9liakm667swrtcYhCsCsfbQKRxdPxrVDk5C7+HrkabvDKb7C1fiT2LTlkvosPB7HD20CWNrR2Nhz0bos6063tt0FMf3LsRL19dj4odbUdR4V+OX3VFoMHMHjh3ZgqluMVgw6F1suKqfQYe/riTizKb1iPIch+VrZuE/jnewd0JvvBNhj3fXH8KJH4LRNvW/GDAiJH87GGOMPZ/0jxA1Ond/prHupmSib3YaBglVfz2U/tCK05+WJoE+bS2nmm+H0wNNCn3TqxqZeU+kA3eESYmLqI2ZM42MeKCfkZIW+5O58xDaeTt/Ub2c/WPI1awpfRSdR5QbRgFmZtR7nbCw6MHet8lJVoOG7dHnoZdHZ+c0JzOPSXRMJYwalpFTl1WZVFAk7Y0N9LqdOb3yZbqQlkvf9bMk+SsrCsusubycOlk6U+Du7PwEQa6wHXXN29OSFI2Ywhhj7HljlC1qdUwEItPzDFE6nw43I/fi2LN4E5XUDSO/+AQd/wzBe/OPomQ/bBXORseDfDviFXsxSWDl3wEt5Mk4E3NXTBGykZmKf+nfn20OhdQVXl4FaSZQmJvBRK2GurBQJrCwtCq8pSFx8EMLDx1SEpORV5BmZQ0bcYa8s9GIU0lwNWIuJk+ebBhm7UiGTpOKpGTu+MYYY88rowzU0uo14Sgp+RJJSbWaqFm1L6QuJPUYgy9nt0Pm1+9h4WllsQsEQKMRgqAQhIvCsEAig6mEoNVP0zMx0f9Xkj5N/LNihDyFlWi1pQddnVIJtbAVMonWsE2GQeGDgDFB6ODyjCqGMcbYP844A7X3KMyd0Bx2YrA2sfDEoPnvo6OZYfQZkKHBhBWY1Sodq2auQ1rh98hyeDd0ByXE4Eyx1rwmIRYJylrw8n6692QbLgIKKC/gQhpQx62+sDWPktV3g4vEFI2GLsWqVauKhpWLMLRxaUswxhh7HhhloIakOnosjUJs1G6EhW7DoZjT2BTohmfabpQ1xqQVM9D8rwzcKOycJYNv4Ej43wrDzAUHkKkWguuNKHz+QQhSmwzHCP+nuXJQ48iKmdiRnAudOhORCxZhd04r9AvwKLWccr9ABLXMQui0Wdibpr9qUOFq5Dz07T4LRwz36+8hfs+32BVzp8TvwhljjP27GWegNlCgbtu+CBw2AJ28nq7lWlHyZu9jxft+sCh2z1rqPR6hG9+F+cbX4GprDRuXLlitGoRvt36I5nJxpichsUdb3zv4pLU9FFZ10OOrO+i59GtMbPiYyxFZE0z/LhQjLbdjoJcD7Ozs4TloN6wC+sPPWpiuisLKCe9i9NJDeBZf5TPGGPtnmOh7lIl/s7Joc5BxMR13LVzgWdeu1NvTT0KXew0X0/6CVV1P1LauyD0DLXIyLyItW45aHm5wLNaoz81MwR3r+kI+Rnz9xRhjrFI4UDPGGGNGjJtejDHGmBHjQM0YY4wZMQ7UjDHGmBHjQM0YY4wZMQ7UjDHGmBHjQP0s6dRQ3leh4PljOrUS91WlPyK0NBrVfdxX86uxGGPsRcaBWhOLzzp44bWQS6jqkKg6Ng2NHNvjswR9ziocm9YIju0/g2FUm4SwiYMxY2d66evVpmB5Fwd4jPtJTGCMMfYieuEDtfJYCNaeuIT9q8MQV/HG7tOjB7idkYlr2fwcMcYYY4/3ggfqe4jc9D9kN38JPpe2YdNvKjH9byDzxeTdR7HxHe9n+wxzxhhj/2ovdqC+/QM2/aDCq5O/xjsvZWHXxiO4L07SU4a/B79O72HxpwPh52IHS1sXtOi/CIevF3vthTIRW6f2gI+TNSzt68Cv/0IczKrAazHUpxHcvSUGrb2cf+tbdx2Hg/ujRW1bWNnXQ5ugbxB3r+RD43LjN2JS90ZwtrGEjVNDdBkbgt//Eicyxhh7LhltoM5N3IJpr7VCwwbN0XX0V/jtdlW/E0qHrP9txs+SbhjYuxH6DXgZf+3ZhP3FAp/uryuIP7YW/xfXGp/sPoaD60eh+olPMODdMGToN0d3C3sn9MY7EfZ4d/0hnPghGG1T/4sBI0KQVt4X3pSLaxcTkHJDf+tbi/R1ozBgfiw8p2/F4SNC2d1jcDC+6F687voujOs1BuGKQKw9dApH149GtYOT0Hv4+vLXxRhj7N9L/6xvo3P3ZxrrbkomwubpN1G4nqDqr4fSH1pxelXQptGKLtZU++1wytGP3gij1x0c6PWwG1SwmtywADIz60Eht8QEYcofa7qTtXkXWnlFS5rLy6mTpTMF7s4WpwvL7B9Ddc3b05IUDSkPTyQ3hR8tOK8Rpijp8EQ3UvgtoPzRwzTRTUF+C86TRnOBgtspyDlwNxXmlBdDs5vJyXlkhDCioaTF/mTuPIR23s6frJcjrMvVrCl9FJ0npjDGGHveGGWLWh0Tgcj0PEOUzqfDzci9OFaF/a60yVuw5YQ9eg3sAithXFK9Nwa+KsXBzbtxrUTjXQaZqfgnJKjZrjU8dJeRlJKHvLPRiFNJcDViLiZPnmwYZu1Ihk6TiqTkSvRMy0tEQjLg06YtbMQkmFjD2qrgfZsqnI2OB/l2xCv2YpLAyr8DWsiTcSbmrpjCGGPseWOUgVpavSYcJcVeCi2QVKuJmlXW60qDc5u3Ilp5A9uHe6BWrVrC0AgTIu4g52AYvrv8+HvJJkLUlgoXDlphFp1SCTVMIZNoodFo8geFDwLGBKGDS2U2VlheyE9mKnvsDtHnrb9iKLxm0JPIYCohaPXTGGOMPZeMM1B7j8LcCc1hJwZrEwtPDJr/PjoWe/fyU1H/hk3bEmDXex42bwxDWFj+sGXzB3jZNBrbNycUPqTkYfcSEpAGF7jVF1ra9d3gIjFFo6FLsWrVqqJh5SIMbVyJN1bL3OFRj3DpfILQdi6ghjpP/BNyeDd0ByXE4EyxuwqahFgkKGvBy9tWTGGMMfa8Mc7OZJLq6LE0CrFRuxEWug2HYk5jU6Bblf2M6f7RTdiZ5o1Rs6eiR9eu6Fow9PkIc4bXwrlt3+F3tThz3gmErYjCDSFyqzN+xCfB4VC17Yc+9aSQ+wUiqGUWQqfNwt40fQRV4WrkPPTtPgtHcvIXrxBZY/Qf4IusTXMRfDQLal0uknctQdiZgkgtg2/gSPjfCsPMBQeQKWyb5kYUPv8gBKlNhmOEf/4VzL34Pfh2VwzuVHW/O8YYY/8Y4wzUBgrUbdsXgcMGoJNXVbYY/8LPm/bgWqN+GNj84VavAi8Pfh2ul3ZgU5TYdJXWhPTXEfC2s4adax98e/81LFs9Dt76qwZZE0z/LhQjLbdjoJcD7Ozs4TloN6wC+sPPOn/xipGhydT/w/Ju17GsS21YKezR5tNcNGxcdKNb6j0eoRvfhfnG1+Bqaw0bly5YrRqEb7d+iOZy/RwqRK2cgHdHL8WhKvwunzHG2D/LRN+jTPybPeT+xr5weEeHNX/+D2/eu4j0v6xQ17M2rB9p2muRk3kRadly1PJwg+MT36IX8slIxpVce7h6OcFSTC1Bm4OMi+m4a+ECz7p2QogvJjcTKXesUb+2tTFfgTHGGKsEDtRlKArU4RheqRYyY4wxVjW44VUWEwmkUglMSnZAZ4wxxv423KJmjDHGjBi3qBljjDEjxoGaMcYYM2IcqCtBo7qP++qneAOGRoX79wt+oM0YY4yV78X8jlqXhX3BH2Hpgauo5163xNWKzK0fPvmwJ5wevoTRpuC/HRtheYPdyPy/nmJiZWiR8t+OaLS8AZSZ/yemMcYYY2V7MVvUlI2Y8I04dgWQymSQFRukUu7izRhjzHi8wLe+TeDYcSJWrlmDNcWG1R/0eLQ1zRhjjP1DOCQ9ju46Dgf3R4vatrCyr4c2Qd8g7l7xbwnUSN0zG/386sHe0hL2dVqg35wIXCn8CluH64eD0b9Fbdha2aNemyB8E3ev2Ks7GWOMsfIZbaDOTdyCaa+1QsMGzdF19Ff47fbf+aYJLdLXjcKA+bHwnL4Vh48I2+Ieg4PxRe/U0kQvxJtvfYvcgK9x7Fwcfl7cBpeXDsW49RmG6dr0dRg1YD5iPadj6+Ej2DLNHTEH4x/7Vi7GGGOsVPrOZEbn7s801t2UTITN02+icD1B1V8PpT+04vSnpUmgT1sL+cvMyMLComiwbU/BCRph+gUKbqcg58DdlC0uQnkxNLuZnJxHRhhGVSlHaNuO45QuzG6guUifv2RGtd/5UT9CF4LbkcI5kHYXZUAxs5uR3HmkOM4YY4yVzyhb1OqYCESm5xW7TazDzci9OFbFb4VSdJqHyKNHcbRgOLgWw+tLgbxEJCQDPm3awkacFybWsLYq6mgmd2uP9jVi8cWQV9GueWP4+HTCwpN50Gr1977zkJifAdoWZQBrayvhX8YYY6zijDJQS6vXhKOkZEiTVKuJmlX1QmoDE9jU8UELPz/4FQwtG8JJoZ+mhUaItzJT2WMr6P7xWejeaxESvN7GZ+t3Yu++bZjkV/RaSm1+BpBxLwDGGGNPwTgDtfcozJ3QHHZisDax8MSg+e+j4xO/PrKSZO7wqEe4dD4BKjFJ33lMnSf+Kfwduyccya5BWDDnLXT0bQB3V0coCq8tZHD3qAe6dB4JRRlAXZQBY4wxViHG2d6TVEePpVGIjdqNsNBtOBRzGpsC3VClDWoQ7v+ZjotJSUgqNiSn/QmlrDH6D/BF1qa5CD6aBbUuF8m7liDsTEGglaKGcw1I0o8g/MR1qJWZOL5qJr6JzoMmTz+PDI37D4Bv1ibMDT6KLLUOucm7sCTsDIpC9T3E7/kWu2Lu4O/sJscYY+xfRvyu+sUidibTF//hQeY1hX5RCfM8OEdrBzcga6mETE1Nya7JQArwNSvsTEZ3f6XFPeuRuYkJmZiYUjW/IBrc1ork7ZfkT6cHdG7tYGpgLSWJsLypXRMaGOBLZgWdyZT7abSLjByG7KLc/BTGGGPsEfyayzJpkZORjCu59nD1coKlmFpEgztXLiJD7Qh3jxowfL39EG1OBpKv5MLe1QtOD2WQm5mCO9b1Uduav8hmjDFWOg7UjDHGmBHjphxjjDFmxDhQM8YYY0aMAzVjjDFmxDhQM8YYY0aMAzVjjDFmxF7gXt85OL9rFb7a/gsSbyhh7tQEXYImYVwPt1J/ZsUYY4z9E17QFvU9RM3pAv9h3+KiQyv06N0NvhZnsfyNtui19Cyq+N0fjDHG2BN7MVvU2d/hjfoj8MeMs4ia1RAyQ6IasfNeQpsv6+HbS7swxMGQyBhjjP2jXsgWtU51F3eVEljZWBWrADkaB36KZR8HwFUjPn1bmYitU3vAx8kalvZ14Nd/IQ5mCdN017BrvD9avrkSCZr8We/9Mhev+nbGh5HZ+Qm58dg4qTsaOdvA0sYJDbuMRcjvf+VPY4wxxirIaAN1buIWTHutFRo2aI6uo7/Cb7er7tUVkuo98VYPWxyb3Rejlkcg4XZ+tJW6dce4qUHwryFUi+4W9k7ojXci7PHu+kM48UMw2qb+FwNGhCCNnNHn3QBYHpiPGevToFX9jqVTlyLWZTBGd7YXlr2OXeN6YUy4AoFrD+HU0fUYXe0gJvUejvVp+vdVM8YYYxWkv/VtdO7+TGPdTcmk8GUZEqr+eij9oRWnV4W7Zyl0witUz0JCJmbVqVG3MbT0xxR6IE7WXF5OnSydKXB3tphClLt/DNU1b09LUjTCmIpig/3JzmUQLZ7Tieyq9aA1l/TpwrJJi8nf3JmG7LxtGDfI2U9jXM2o6UfRlCcmMcYYY+Uxyha1OiYCkel5hiidT4ebkXtxrCp7eVk3w7CVh3DpShwiVo5FK9VPmNPbD10+iUKOMDnvbDTiVBJcjZiLyZMnG4ZZO5Kh06QiKVnfApej6ZTVmFE3Ah98eg5t56/EKPf8F3GqhGXjyRcdXxFa1wWs/NGhhRzJZ2JwV0xijDHGymOUgVpavSYcJUJ7uhhJtZqoWbUvpDaQOTZCj3fmYf3hOBz80A1nlizA5kwddEol1DCFTKKFRqPJHxQ+CBgThA4u4obIzGFjZQoTEzNY2ypQuMX6eSGDqak4biCBzFQC0grT+AXUjDHGKsg4A7X3KMyd0Bx2YrA2sfDEoPnvo6OZYfQp6XAjpBesrXti7fXiEdMazdo1g33edWT+qYOsvhtcJKZoNHQpVq1aVTSsXIShjfX9xLW49M17+OT3Fpgy3hU/z5iKbUKA15N7N4Q7JSDmTLFbAJoExCYoUcvLG7ZG2zOAMcaY0RFvgRuhB5T+6/cUFrqNDifdEdOqhjbjOxpQ24xcX19CB1LuUh5p6V7qAVrwak0y9ZhIh3KFmfLiaFE7a7JtNZXCU/XfXCvpys+fUEC3mXT4LpHm4lfUvZoNtf/8HOU9+I1mt7Ck2gM3U4b+e3TNBfqysx3ZtZtFkRkqIa/rdPzTzlTdyo/mnRHGBTnn/kf/t/MMZVfl9+6MMcaeO0YcqJ+tnLPraGzHumQpkZDM1JSkEgU5tx5OX58WorAo7/IumtrJhcxNzcnW1pzMHJrSkK/OUI7mEn3doxpZtPiYfhN7n909NIkamNWmQVsyDOOaK3vpw851hGUVZGVuSmbO/jRx2yXKD9NK2j/ahWQOQ2iX/qKAMcYYe4wX+BGi+TQ515B25RbgWB9uTpalfBegRU7mRaRly1HLww2Olbr9LiybcRHpdy3g4lkXdvlPVsmXm4mUO9aoX9vaeH8jxxhj7B/3wgdqxhhjzJhxY44xxhgzYhyoGWOMMSPGgZoxxhgzYhyoGWOMMSPGgZoxxhgzYhyoGWOMMSPGgZoxxhgzYhyoGWOMMSPGgZoxxhgzYhyoGWOMMSPGgZoxxhgzYhyoGWOMMSPGgZoxxhgzYhyoGWOMMSPGgZoxxhgzYhyoGWOMMSPGgZoxxhgzYhyoGWOMMSPGgZoxxhgzYhyoGWOMMSPGgZoxxhgzYhyoGWOMMSP2YgRq7R2kxUUj5tItMeHZ0amVuK/SiGPsX+P+LWRczcRtpTheZTRQ3b8PtVYcZYyxSjLOQK3Lwt5xjWHj3gUj3nkH706cgfmrv8fZPyt/ttNe/g7DG9WBh18ndBmzAdqkMEwcPAM70yuSlxZJYRMxeMZOVGh2qHBsWiM4tv8MCX/7ibmy21oObRLCJg7GjJ3pQs7POW0a1r3VGM2HheFSFV9jaVOWo4uDB8b9VOVXAIyxF4RxBmrKRtzvyXgAKaRSKXT3LuPIypFo6/MyZuzLhE6crXxq/LpqHrao3sD29L9w++BU0IPbyMi8huwKnTcJD25nIPNaNoz/NFvF20oPcDsjE9cqVlHl0iZtwMSBU7El1djCvhbpG6fi86xh2LpjBlpbicn6C58NEzFw6hYY3SYzxl4sZIw0CfRpaznVfDucHohJpMmgveObkEW13rQ2VSMmlieXvnvdghSvhVKOmPJsKenwRDdS+C2g8xXdxBeEKmoaeSua0eyYPDHF2Kkoapo3KZrNpqfZZM2lxeRv5kwjIwqPZMYYq5R/z3fU0lro/dkiDDaLxOp1cSi4Q6lM3IqpPXzgZG0J+zp+6L/wILL0TW71r5j/aht8eEgJ9dHZaNOkDd7fr4L6dDC6txyEtZf1zSQlIqa0hv+klfh6TCd4OFrC0tETXafvwVVDK0qN08Hd0XLQWuTPHoEprfwwfOZMdPN0gH3nL/LTy5Ibj42TuqORsw0sbZzQsMtYhPz+lzhRkHsOoeO7okFNa1jY1IR35zEIickRJz4sF+dCx6Nrg5qwtrBBTe/OGBMSg/y5H9pW6JB18FO84VsbNlb2qNs6EEsWvYPWneca5sa97zG+ZWtM3VfUYlafmIeuLQOx/qpQgerTCO7eEoPWXi689f3Yui6zHlU4/FEHtBgUgovKc1jxmi86fnzEkJ9+ucStU9HDxwnWlvao49cfCw9mFd4xyT0XivFdG6CmtQVsanqj85gQlFo1ynC85/cSxny6AIP86sLe0go1GvbCnB8v4MTKYWhX3x6Wlo5w7zAWm5LU4kICZSK2Tu0BHydrWNrXgV//hTioL5DqMD7q0AKDQi5CeW4FXvPtiI+PqAyL5MZvxKTujeBsYwkbp4boMjYExXen7vphBPdvgdq2VrCv1wZB38ThHokTDXIRv3ESujdyho2lDZwadsHYkN9RlEVZ+1iFqPld4PfGaiRwNwjGXhxiwDYupbWoDbJpQ4AlKbqtoetaIu3NcBrpZkVeg7+kfafO0vGN46mlrQP1WJMqTMymS6cO0dyOcpJ3nEsHj/9KiTe1pDw8kdwUfrTA0OQVWtz9LMlEVpu6fryVjp89TRHBPamWaW0atU+/5odayLnfUT9LE5LWfJnGLwulrZHn6a5+swo9NL82i3YG1SVz1wAKDj9N8Wf20bIBnmTu1JfWGe4KqOjEDB8yqxNAS38+S+ejw2lB91okd59AB3MNGZagOjGDfMzqUMDSn+ns+WgKX9CdasndaYJh5pLr1qR+Q70cFeTRf7mhbqK2z6auzlKSOI/Mz+zOOuqtsKI3NhetSLl/NLko/GnxJSED5WGa6KYgvwXnyVCUsuq6zHrMpVtJJ+nwin7kZFqPhqw9QieTbutzpJvhI8nNyosGf7mPTp09ThvHtyRbhx60Rl83qhM0w8eM6gQspZ/Pnqfo8AXUvZac3CccFNb2kNwwCjAzIQufIFq9P5piT35Pc7rUEK5CJeTg/z5tPh5LZw5+TUO9zMiu7wbDsSMUiMJHupGV12D6ct8pOnt8I41vaUsOPdZQqvoWJZ08TCv6OZFpvSG09shJSrqtFXbnTgqqa06uAcEUfjqezuxbRgM8zcmp7zoy7E5NGoX0rkYKzwG0XJ9n1Haa3dWZpJKCFrWWsnYGUV1zVwoIDqfT8Wdo37IB5GnuRH3XpRrquex9nEdnVwdRwITvKEU/M2PshfAvC9QPaM/wGiRvs4guaDR0eXknsnQOpN3Z4mThFL5/jBAY2y8pHN/YV0GKgLDCk3tpgVreeSVl6k/eeg9+oBFOZtTusyRhpLRALadXVvwhnHJL81CwTFpM/ubONGSnPjCJcvbTGFczavpRtHDazab1fczJQrjwuCZmqEmJoBWLw+ikEBgelr2+D5lbdKM1RTNTxIrFFHZSn3/xdWso6fOXSFHjLdpRuOo8ivukJcmfKFCXV9fl1aMQgB6+9a25TMs7WZJz4G6hFkS5Qt0IgbD9khR9YamPuQV1W3NNrGsNpUSsoMVhJ+mRqjEEajPqve6OmCCsfu/b5CSrQcP2FBxBQpCb05zMPCbRMZV+9cupk6UzBRYVSFj9GCGItqclhij48K1voU4X+5O58xAquTvHkKtZU/ooOo80F4KpnaJknnkxs6mZXAzUmiRa7G9OzkN2UlEWOUI9upJZ049IyKKcfcwYexH9636elafOg4mZAmYmeTgbHQeV5Coi5k7G5Mn6YRZ2JOugSU0S564YiaUVrApqwsQcCgWgFtZTOgmsrG0q1AtPdTYa8eSLjq/YiykCK390aCFH8pkY3IUNuo0IgmvUVPi1fR2jP16B72/6YvT0QLSxf3QNNt1GIMg1ClP92uL10R9jxfc34Tt6OgLbFMvfIA9JiZdAPq3RxlZMErbY2sbyCXsPVqyuK1WPeWcRHaeC5GoE5hryE4ZZO5Cs0yA1KVlfWIwIckXUVD+0fX00Pl7xPW76jsb0wDYopWoMpDJT8S9h9RbC+qWu8PIqSDOBwtwMJmo11KRffTTiVBJcjZgrlmcyZu1Ihk6TiqTk0u4rq4Q6iAf5dkTJ3dkBLeTJOBNzF3mJCUiGD9q0tRGnCmu1toaViTiiEsocT/Dt+AqKsrCCf4cWkCefgZBFJfYxY+xF8WTn7X+K9jISk3NhV98dNSQ6KJVqwFQGiVYDjSZ/UPgEYExQB3GBf5h+myCDaVH8EEggM5WA9Nusk8C57xr8fv5nfN7fA3kxGzCpUwM0H7EFaaV89y1x7os1v5/Hz5/3h0deDDZM6oQGzUdgSykza7U6mEhNUWLVT+wZ1LVOifwsJdCK+Wk0CvgEjEFQBxd9YdF3ze84//Pn6O+Rh5gNk9CpQXOM2JJW+s/FTEz0/5WkTxP/fJhOqYRaqB2ZRFtYHo3CBwFjgtDBRSrOVZJ+HmHnlaxTibB/JWQog/CPsG3CuFCm0unXo8+i5F6RCHlKSL8dukrtY8bYi+FfFaizD6zCxrga6PlGR1gIJ8T6bi6QmDbC0KWrsGpV0bBy0VBxiX+W3Lsh3CkBMWeK/cRJk4DYBCVqeXnDli7jwLq1iMxpjiHT/4v1EacRt6kv7m5egtDzD7fqtLh8YB3WRuag+ZDp+O/6CJyO24S+dzdjSeh5cZ4CMrjVrwO6nICEwr5TBI3Qui3s1ySVQWYitIiF4FBAe+M6Sv+p+jOoa1l9uLlIYNpoKJYWy2/VqpVYNLSxcE12AOvWRiKn+RBM/+96RJyOw6a+d7F5SSgeqZonIKvvBheJKRoNXVps3cKwchGGNpaJcxUnh3dDd1BCDEruzlgkKGvBy9sWMncP1KNLOJ+Q3/HMQGjBF95TkHujoTshIeZMsZ/QaZAQmwBlLS9421Il9jFj7EVhxIGacP/PdFxMSkJi7C/YtWwU/jMkFNpBSzCvl/5+rhx+gUFomRWKabP2Ik1/5lNdReS8vug+q6BX8T9L5huIkf63EDZzAQ5kChFTcwNRn3+AkNQmGD7CH2b0AKfWTsGIKSvx2y0hQupykZF+HUqZLRxsHt41hAen1mLKiClY+dstIWzrkJuRjutKGWwdim615pPB58034Ht9M+YFH0GWWpg3eReC150uFjS84OWah992bUbSfSGe3DiJtTuiC3vTl/T0dS2xtIAFZSPjSo6htQ+5HwKDWiIrdBpm7U0zBC7V1UjM69sds47kgB6cwtopIzBl5W/Ir5oMpF9XQmbrgEeq5gnI/QIR1DILodNmYW9+gXA1ch76dp8FYfUCCSwtLEDZGbiSo4VWJ4Nv4Ej43wrDzAUHkL87o/D5ByFIbTIcI/zNIGvcHwN8s7BpbjCOZqmFbU7GriVhOFNQ6TJfBI70x62wmVhwIFNo0WtwI+pzfBCSiibDR8DfrLx9rMPt6O1Y90MicvNzZIy9CMTvqo2LoTOZqb7xRzAxIZm5PdXx7UFjVxylTH0/n0J5dHnXVOrkYk6m5rZka25GDk2H0FdnCn41XbHOZIo+64t6bysP0jhXM2o5P14/UkpnMgX1WV+yr3eRh+YXaK7spQ871yFzUwVZmZuSmbM/Tdx2iVT5kyk3LoSGtahGcqkZWVqYkqldYxq0+gzdE6eXkBtHIcNaUDW5lMwsLcjU1I4aD1pNZwwzP7zuXIpdM5C8raUkMc3Pt0cndzKtJXYmIy1d2TGamtiK0xVO1LZrS3I0K73Xd9l1XV49ClTRtPAlO5KYSMl+8Pb8tLzLtGtqJ3IR6sXc1pbMzRyo6ZCvKH/35VJcyDBqUU1OUjNLshC20a7xIFqdX9iS9J3JFArqu7FYx7iD48hV0YYWJYo7QijFheC2pKg7lg4o81PyLu+iqZ1chH1jTra25mTm0JSGfHWm8Df3quiF9JKdhEyk9jR4uz5vDV3Z+yF1riPUgcJKWM6MnP0n0rZLBXuT6MG5tTS4gTVJJUKdCvunycAA8i3+O2rNFdr7YWeqI5RZYSXkI0zzn7iNCrMocx/fpc1v2pLMbSIdKVolY+w5Z6L/Jz9k/4tpc5B5MQ3Z8lrwcHOEmZhsPLTIybiI9LsWcPGsC7tH7qyqkX0lBX/kmKGWhxscyymAOvsKUv7IgVktD7iVMbNKpYJMfRPJV3Jh71oPKXOaosuPfaFM+FycQ2ij3ctAcupfMHfxQD17uZhahqepa80dpCX9AW0NT7hXL1pSm5OJi2nZkJdWHnU2rqT8gRyzZ7VvhX2TeRFp2fJS615zJw1Jf2hRw9MdhZss1EHGxXTctXCBZ107PLI79dOTryDX3hVeTpZiYknanAxcTL8LCxdP1H30gHjsPtb9dRWp9x3h7mwhpjDGnnfPR6Bmj9Bd/Rb9uoai7tSZGPKSC1Qx32LG5G+hmXgY0fNaiXMxxhgzdhyon1s5iPvuU3zy5TYcPv8nTKo1xCvD5mDJx6+hfgUazowxxowDB2rGGGPMiP2rfp7FGGOMvWg4UDPGGGNGjAP1k7p/CxlXM3G76MkVVUQD1f37UPODqBhjjAlezECty0L4Ow1R9+WPEJH/nsZHqGND8LpXHXReFo3Ch3sV0KZh3VuN0XxYGC5VwVOyitOmLEcXBw+M++kprgByEvD95xMwqGcXvNKlD4ZOXYEDacWelsUYY+xf48UM1JSNc3EpuBq1DMFhF/Fo4/UeDqycj70XMxATnfbQ07q0SN84FZ9nDcPWHTPQ2qogOQkbJg7E1C2ppeT399Hd+BFTOrRD4Nok2Lbqhl5dGoKOfYpeL72Jby5U8VXFY2mRtGEiBk7dgtRnWBnapA2YOHAqtjzLlTDG2D/shb71bWZGOLUpDDEPx69b4Vi/5zbMzEt7pYMU9YbvRtLJz9DZsVj1aW8hPjIchxL/Knqe9t8uF4c+GY+vsgMQevwnfDNvBqbNWozvDm/Hu9Y/4ZPgH2B4OuYzp8Wt+EiEH0rEX8+wMrS34hEZfgiJz3IljDH2D3uBA7UMHn3fRNOULVh/9L6YpqfDle0b8LOsJ173V4hpImUitk7tAR8na1ja14Ff/4U4mKWD6vBH6NBiEEIuKnFuxWvw7fixuIAQOuM3YlL3RnC2sYSNU0N0GRuC3/8SJwp01w8juH8L1La1gn29Ngj6Jg73ised3HhsnNQdjZxtYGnjhIZdxiKkeAbFKQ9jy/cZaPz2dPR1LrZrrdtjxHuD0ML0T/whXpSUuV3KCExp7Y9JK7/GmE4ecLS0hKNnV0zfc7XobkHuOYSO74oGNa1hYVMT3p3HICRGuAxQHcZHHVpgUMhFKM+twGu+HfHxEZWQ5RS08huOmTO7wdPBHp2/OIfvx7dE66n7il5QoT6BeV1bInD9VTFBhzunvsaoTt6oYW0JO5dm6D1jO5KUKhz+qANaDArBReU5rHjNFx0/Fp85XmZ9KRExpRX8hs/EzG6ecLDvjC8uc2ucMWbk9L+jNkb3EjbT+338qIG3L3V5ZzWdvCW+SL8qGJ4lriCvKTvoy//YkNPQXVT4qn9h2qI2FuQ2/nta3UNBdoN35D8nXHuTwke6kZXXYPpy3yk6e3wjjW9pSw491lDKjSQ6eXgF9XMypXpD1tKRk0mGrLRZOymorjm5BgRT+Ol4OrNvGQ3wNCenvusoVf8Iak0ahfSuRgrPAbRcn2fUdprd1ZmkEvHZ0Nos2hlUl8xdAyg4/DTFn9lHywZ4krlTX1pnyKAkzaXF5G/mSEN3i8+Vfoxyt8vwTHMTktXuSh9vPU5nT0dQcM9aZFp7FO0zZK2iEzN8yKxOAC39+Sydjw6nBd1rkdx9Ah3MuUVJJw/Tin5OZFpvCK09cpKSbmuFLPuRpYmUar48npaFbqXI81dpXW8FWb2xOb9+9ZT7abSLgvwXXzKMatND6XUnS2o07Gs6cDaeTv1vAfV0saCGUw/TraSTdHhFP3IyrUdD1h6hk0m3K1Bf+c8kN5HWpJfHL6PQrZF0/nGPbWeMMSNhnIH67s801t2UTPQv5TAMEqr+eij9UVWx2hCozch1/EHK3Nyfqtv3oW+v5WeuOvkB+Sia0cen02llZ7PCQK25vJw6WTpT4O7CkE65+8dQXfP2tCRFCAKqKJrmraBms2MozzBVQ0mL/cnceQjtFGJIgRxhGVezpvRRdB5pLgRTO0XJPPNiZlMzeX6g1iQJgdfcmYaUzIDGuJpR04+ixfUUyTs7h5rLXWj0fvGtE6Uqf7vyA7WcOq/MpIIqf/DDCHIya0efJekDXjat72NOFt3WkFhtpEmJoBWLw+ikEJT1gTxqmjcpms2mGHEjDYFa/gqtKNyJd8oJ1Bo6/2lrUtR9h34sfA+Hhi5vGEPd315rGFNFTSNvYV/NFldSfn3lB2r5Kyuq7lhijLFnzChvfatjIhCZXuzdydDhZuReHKvin0KplUrYv/Y2+lofRpihE1guDq/fiittgjC8qRYqddEW5J2NRpxKgqsRczF58mTDMGtHMnSaVCQll9ZJS4Wz0fEg3454xV5MElj5d0ALeTLOxNxFXmICkuGDNm2LXlNpYm0NK/GrcZWwznjyRceSGaBDCzmSz8TgrphUwMTUFFITHbRl3s0tf7vySWBpZVX43YiJuQIKqKHO09eJDbqNCIJr1FT4tX0doz9ege9v+mL09EC0sS/jkJJYwbrC76hU4Xx8MuDTCq0L32shRf2gNfhx3TvieEkVrS+JlXWVvCqTMcb+DkZ5upJWrwlHScmOXJJqNVFTKo5UCYJWJ0Q0yy4YMbAOTm0MQ9yNCIR+fxedh72F+lItNMUCnk4I6mqYQiYR0jWa/EHhg4AxQejgUvqG6eeBzFRYqhiJDKYSYd36aVqNcHEgjMsesxv069BPL5mBkKUEJCyreeiXZdKazkIdZSMz4+HvsHXIPn8IeyLj8KewTLnbVS4JnPuuwe/nf8bn/T2QF7MBkzo1QPMRW5BWhV/5avU7QCYTwnMFVbK+GGPs38A4A7X3KMyd0Bx2YrA2sfDEoPnvo2PVv+NQIEer4UPRNOk7LPkoBPtlfTC8n9MjFSOr7wYXiSkaDV2KVatWFQ0rF2Fo40dfU6jP17uhOyghBmeK3QnQJMQiQVkLXt62kLl7oB5dwvmEYr9xVquRJ/4p924Id0pATMkMEJugRC0vb9g+vJF2Qiu5pQl+3bsXmcWDku4Gvv+wHwYvOoRcKn+7yqW9jAPr1iIypzmGTP8v1kecRtymvri7eQlCz1ck0OtJhRhsAp0QXAs3VXsD1/8siPQyuHnUBaVcQGLhD9l1+PPQF5i+aI84XlKl64sxxv4FjPPUJamOHkujEBu1G2Gh23Ao5jQ2BbpVvGVVSdIGQzGs/Q1s+b8jqPbmCPQoJVbJ/QIR1DILodNmYW+aPhCocDVyHvp2n4Uj+t88SSxhYUHIzriCHMO9Zxl8A0fC/1YYZi44gEwh2GhuROHzD0KQ2mQ4RvibQda4Pwb4ZmHT3GAczVJDl5uMXUvCcEaM1DLfQIz0v4WwmQtwID8DRH3+AUJSm2D4CP9H380sdcPbHwai+s+zMXzhT0jTd2ZXX8fJNROxMNJKaP0PQl1p+dtVLnqAU2unYMSUlfjtllBWXS4y0q9DKbOFg+GesgSWFhag7AxcydFCW2pLVg4vL1fk/bYLm5OEDVXfwMm1OxBdGOflaDH4Lfj+EYb5q6KRrdPh3qX/Ye6U2diRmn9hJLG0gAVlI+NKDrTCSipdX6J78Xvw7a4Y3OEWN2PMGInfVb9YDJ3J5FTz7XAq6B99c3N/qiZvTnPOir2fNBfps3byol7fgrzLu2hqJxcyNzUnW1tzMnNoSkO+OkM5hqkqil74EtlJTEhqP9iQou/8dGXvh9S5jjmZKqyE5czI2X8ibbukEqcTPTi3lgY3sCapxJRMTe2oycAA8jUTe30LNFf20oed6wjLKsjK3JTMnP1p4rZLwtoe5wElfjeeXq5tThKZnOSmEjKt1pyGrDhZ1LO9vO0ydCZTUJ/1RV2ilQfHkatZS5ofn18/uXEhNKxFNZJLzcjSQth2u8Y0aPUZKuj3pYpeSC/ZSchEak+Dt+fmdyZT9KFiWZL2yg4a3cRWLLuCnNp2pZaOZoW9vvV1mvTdu9S6phmZmgvbKrOlhm9+QSfvFEyOpoUv2ZHEREr2g7cbksqur/zOZIo+66lYyWj/aBeSOQyhXYW92hhjzHjway4rTYuczItIy5ajlocbHEs00zS4k5aEP7Q10Ni9upgm0OYg42I67lq4wLOundDWfoh+evIV5Nq7wsupsOdUMcI6My4i/a4FXDzrwq60O+0P097DtUup+FNnh7qedUpfprztKpca2VdS8EeOWSl1IdTGnTQk/aFFDU93VH9cc1Z3Tyh7Kv4yd4FHPXuhHV0KdTbSUzKhEurHQ6ifEreBNHeQlvQHtDU84V64kkrWV24mUu5Yo35tayO9xcQYe5FxoGaMMcaMGDcgGGOMMSPGgZoxxhgzYhyoGWOMMSPGgZoxxhgzYtyZ7LmgxdUfV+GwvT8kJzPhP+E11K98F27GGGNG6AVuUefg/K5gjB/YE51f6Yxegydh2Y+Xi165WB7VEbznbo5WnyYIYfJJaJHy3/ZQ1Boljj8pHa7/MAE9x0ciR2EOzfH30XPM7pJPJmOMMfav9YIG6nuImtMF/sO+xUWHVujRuxt8Lc5i+Rtt0Wvp2YoHayOgu/E9pk/4Ga2Wr8dY30YI+mYpXjryHiZtzih6NCdjjLF/rRczUGfvwbIVsfCetRf7vp6H6e9/gIXfRuKHD+oiauEC7Lotzmf0NIhbvQjhdcdhVu/qhp0pceyFD8a54afgL/FbsUeIM8YY+3d6IQO1TnUXd5USWNkUvcZR/2zpxoGfYtnHAXAVX7OkTt2D2f38UM/eEpb2ddCi3xxEXCntRvc9fD++JVpP3VfUGlefwLyuLRG4/qqYoMP1w8Ho36I2bK3sUa9NEL6Ju1fsVZ7lrE8ZgSmt/DB85kx083SAfecvcPnBKWzaloTmb7wJt8IHoUvhMWAAWqdvx8Zf/k33BhhjjJXGaAN1buIWTHutFRo2aI6uo7/Cb7er7kaupHpPvNXDFsdm98Wo5RFIuJ3/JgipW3eMmxoE/xpCtWiisfDNt/BtbgC+PnYOcT8vRpvLSzF03HpkPLIpWty5koDEK38V3W6mHGQmJSD1Zv6rn7Tp6zBqwHzEek7H1sNHsGWaO2IOxgttYlF569P9hSuJZ7BpfRQ8xy3Hmln/gf2lSBxJr4c27ZxL7EiJc3v4e17HkchYMYUxxti/lXEG6pxITO8zDMv2RuNC0lkcDJmIPqM2lhIgn5C0Ht4O+wn/N9QWhz5+DY1r1ULj7u9i2f5incl0Duj8wQbsCJmFnk3c4N5qAN5/yxcPzp7CuYL3UFaYFpe2rMMB0/74/JvJ6NGqGV7qPwf/HdW46PnaFVqfKTp8tAUrpgzDwK4+ME9OQgrqwt39oSdkyzzgWV+K9KQkMYExxti/lVEGanVMBCLT84rdFtbhZuReHKvKO7nWzTBs5SFcuhKHiJVj0Ur1E+b09kOXT6Kgf2sl5G5o374GYr8YglfbNUdjHx90WngSeVottJX+QVseEhOSAZ82aGsjJsEE1tZWwr+iCq1PAitrm8KdprzzFx6YWsHaXEwoJIONjSW0d7PFccYYY/9WRhmopdVrwlFSGMIMJNVqouYzeCG1zLERerwzD+sPx+Hgh244s2QBNut/23T/OGZ174VFCV54+7P12Ll3H7ZN8hPatE9Gq9EKKzOF7HE1/gTrk0olMBECeWk3GnQ6YX0mz+oN3owxxv4uxhmovUdh7oTmsBODtYmFJwbNfx8dH/eqxErR4UZIL6E12xNrrxcPcdZo1q4Z7POuI/NPHdSxexCe7IqgBXPwVkdfNHB3haOi5MVDESlkMhPoNJqioKm9get/FnQ8k8Hdox7o0nkkFOuJrVYX3UOv3PrymVavATvdHdy683CofoDbtx/AXLjgYYwx9u9mlIEakurosTQKsVG7ERa6DYdiTmNToJsQDquCBNV6DUFP20MIHrscBy/nQB9ec9MOYsmXEbhZ92V08pRBWsMZNSTpOBJ+AtfVSmQeX4WZ30QjT5OHR7+ilsPLyxV5v+3C5qT7QtS9gZNrdyC6sKeYDI37D4Bv1ibMDT6KLLWwvuRdWBJ2pjCvyq0vn7xJUzSUpOLChYfmUF9A4iWCd7MmYgJjjLF/K+MM1AYK1G3bF4HDBqCTl62YVjUktd7CtxFfo8ftFQjwtIO5XAFb99746q8eWLFlIV6xEAKn+zv4fN7LyFzaCc4KC7i+vgk2/q1gcTcVKZkP/0RLjlYT5uPt6kcwzscOcqt6eH3bAzjZFVWvrMlU/N/ybri+rAtqWylg3+ZT5DZsXHhru3Lryyep3Qs9mt9E1JHEot7jAm3KYRy72hDde3mIKYwxxv6tXvhnfWtyriHtyi3AsT7cnCwfuXLR3LmCixlqOLp7oIZCTHwc3T1kJKfiL3MXeNSzF8L3o7Q5GUi+kgt7Vy8Iq3tEpdYHHTJD+8E3uA62/r4Sna30aUqcmOGHPmfH4fcfx8GVv6ZmjLF/NX4px7+dOhaLOndDRI+fcOijZjBJWIpunbeiQ/gvmNe63EjPGGPMyHGgfg5oLoXirV5LUevL5VDMHIsL7+7B9jE+pbboGWOM/btwoH5OqK/+jvOoCcl1DRr4uaJKOsgzxhj7x3GgZowxxoyYEff6ZowxxhgHasYYY8yIcaB+HK0K9++rUPovmJnBc15HOrUS91XiL9R1aiiFshb/vXrZNFDdvw91ZStHexU/fhmG6Pux2PRFOFIrvkLG2HOKA/Vj3N88EA4O/bHR8IYOI6XLwr5F72Lson249tBTRHVZ+7Bo7DRsOPfszvRVXke62zi4ZBzGzN2FtIcDXM5xrJgwBrO2JJW4MNDEfoYOXq8h5FJVXy6ocGxaIzi2/wwJQtaqY9PQyLE9PtOPCFuQFDYRg2fsRPpjVqtNWY4uDh4Y91Ml3iSju44fJvTE+MgcKMgSmuPvo+eY3dA/ep4x9uLiQP3EhJP1hokYOHULUqs6RlQUZSNmzzqsmTMa03dllXg5B92JRfj6zfjl6r+oSSaxQ2OX2wgPno5gIVgV0SLx6w8xa30sLBq5F3uUrBLHQtbixKX9WB0WV4nW7tMiPLidgcxr2UWvRX1qOtz4fjom/NwKy9ePRWNLDwR9sxQvHXkPkzZnlNi3jLEXCwfqJ6bFrfhIhB9KxF//cL95CV3DtmkfYs+Nf/vpXIKa/edgSps/sTl4LS4UXADd3ovPV5xCjaFzMbFp4Ru8gXuR2PS/bDR/yQeXtm3Cb8VeePJsyeA7eTeObnwH3lX15DdNHFYvCkfdcbPQu3r+x1Li2AsfjHPDT8Ff/o1lY4wZmxc3UOfGY+Ok7mjkbANLGyc07DIWIb//JU4UUQ7OfPkWWtWxg5VtbTR/41MczBKCoeowPurQAoNCLkJ5bgVe8+2Ij4/kn0mViVsxtYcPnKwtYV/HD/0XHoR+EX3rL2JKa/hPWomvx3SCh6MlLB090XX6HlwtbJErkbh1Knr4OMHa0h51/Ppj4cGClrJ++VbwGz4TM7t5wsG+M764rF/QBI49hqFX3mZMm7UPt8qI1bnxGzGpeyM421jCxqkhuowNQWGRleF4z+8ljPl0AQb51YW9pRVqNOyFOT9ewImVw9Cuvj0sLR3h3mEsNiWpxYUEj6sjPWUEprTyw/CZM9HN0wH2nb+AYZOVidg6tQd8nKxhaV8Hfv0XFi0j9cG4ecPhfPJL/DfijpCgwbmvgrHjwav4cFY3FH/q++0fNuEH1auY/PU7eClrFzYeuS9OERjK0wnvLf4UA/1cYGdpC5cW/bHo8PVirdOy6rssapwO7o6Wg9bml0egu34Ywf1boLatFezrtRFaw3G4V/wCrpzjTX1qE7YlNccbbxZ/+YwUHgMGoHX6dmz8pSpfxs4Y+1fR/47aGN1L2Ezv9/GjBt6+1OWd1XTyllacUgW0WbQzqC6ZuwZQcPhpij+zj5YN8CRzp760LlVjmCU3LIDMIKXa3efRrl9j6XTEEupXX07VAtbRlbxblHTyMK3o50Sm9YbQ2iMnKem2lrQ3w2mkmxV5Df6S9p06S8c3jqeWtg7UY02qPkf6rp8lmchqU9ePt9Lxs6cpIrgn1TKtTaP2PdBvFN0MH0luVl40+Mt9dOrscdo4viXZOvSgNYZtEpeX1qSXxy+j0K2RdD47gT5tLaeab/+Pktb3pZpyTxr742395pMmcRG1MXOmkRH6vPVF3klBdc3JNSCYwk/H05l9y2iApzk59V1H+dmHUYCZCVn4BNHq/dEUe/J7mtOlBkmE9rqD//u0+XgsnTn4NQ31MiO7vhvourA7yqwj/e7K/Y76WZqQtObLNH5ZKG2NPE93tTcpfKQbWXkNpi/3naKzxzfS+Ja25NBjTf526Gn/oPV9q5Fl20UUd20bDXY2p+YfnyKlONlAe42+7WNHNYfspDvaTArpZUdOQ3fRHXFyQXnMPPvTkr2/Ueyvu2juf2qRabW+tP4P/caVV99KOjzRjRR+C+i8MKo8PJHcFH60QD/y0DTSpFFI72qk8BxAy/VlitpOs7s6k1Qi1n+5x1sexX3SkhQ+H9BvKmG0uLwYmuOroIYzTooJjLEXjXEG6rs/01h3UzLRfxloGCRU/fVQMpxfq4AmaTH5mzvTkJ35Qc0gZz+NcTWjph9FC6dNMQjJu9CqzIKVaunGhtfJzvwV+jJdn6aiqGnepGg2m2L0C5CGLi/vRJbOgbQ7Wz+ul0v7xwgn6PZLDH/rA62880oqzPLBDzTCyYzafZYkLH6ZlneyJOfA3VS0uLBNQnBtvyRFP5K//CsriupBUxCow+mBJoW+6VWNzLwn0gEhWpUM1BpKWuxP5s5DqGSRx5CrWVP6KFoogCGwmVHvdYWhjh7sfZucZDVo2J78YK8PKGfnNCczj0l0TAgo5daRIVDL6ZUVfwhT8mkuL6dOls4UWFRJQjHHUF3z9rQkRR+08uWdnUetLJ3Iv5MPmbsMo+9viRNE2rQV1MW6Nr0dnqMfoxthr5ODw+sUdkNck1ieHiFFC2r/WEPdrc2py8orpC23viseqDUXgqmdomSZ8mJmUzN5fv2Xf7w9oJ2D7UjRfS3dFCcXyaGNr1uSRcAGcZwx9qIxylvf6pgIRKbnGaJ0Ph1uRu7FsSq6+6c6G4148kXHV+zFFIGVPzq0kCP5TAzuikkwsYClVUEVSeDg1wIeuhQkJpf2hug8nI2Og0pyFRFzJ2PyZP0wCzuSddCkJonzCLlYWqEwSxNzKBRCedVCfnlnER2nguRqBOYalhWGWTuQrNMgNSlZXEBY3soaNqXtNakbRn7xCTr+GYL35h9FyY7YKmHb4kG+HVGyyB3QQp6MMzGFJYZUVvDiTX3xhe2TusLLqyDNBApzM5io1VAX7Jxy60gCK2ubwu9Y8oS6j1NJcDVirlhHkzFrRzJ0mlQkJRd1B5M1ew+fDFbg5NEMvDTjY/RxECcYaJG8ZQtO2PfCwC76V4ZJUL33QLwqPYjNu6+VuHUtK1YeSc12aO2hw+WkFORVsL4rIi8xAcnwQZu2NmKKUC3W1rASrjT1yj/elLjz1wOYCvvWXJxcRAYbG0to72aL44yxF01pp/x/nLR6TThKxLOcSFKtJmpWWccdDTTCCdC06BwukEBmKoHQ1ILmcV9SCid9UyFICLOUQgelUg2YyiDR56FfhzAofAIwJqiDOE8ZdErkLy4R8i9YXgGfgDEI6uAizlQ2qccYfDm7HTK/fg8LTyuLXejoiyxstGH7i5EIdSAhw/oMTEz0/5WkTxP/rJAy60hfTCXUwhwyibawjjQKHwSMCUIHl+I72A6de/rD1rQxuvWsX+x7W4HmHDZvjYbyxnYM96iFWrWEodEERNzJwcGw7wq/N36EiVBeISOdVpihCuq7kFBYrf54EvIqlT7vMo83KaTC8a7Vln7g6XTC9ppU1cHPGPu3Mc5A7T0Kcyc0h50YrE0sPDFo/vvoWEVvmpB7N4Q7JSDmTLEmuiYBsQlK1PLyhm1hrehP3uKfAuWFC0hDHbjVL9bzuJAM9d1cIDFthKFLV2HVqqJh5aKh4jxlkNWHm4sEpo2GYmmxZVetWolFQxuLM5VHhgYTVmBWq3SsmrkOaYXnfTm8G7qDEmJQssixSFDWgpd38S5alVWZOtIX0w0uElM0Grq0WBmFYeUiDG1c+jIPU/+2CdsS7NB73mZsDAtDmGHYgs0fvAzT6O3YnPCYq4R7CUhIA1zc6gst7aqo73wydw/Uo0s4n1Csa7ZajYJ7CuUfb6aoXsMOuju3cOeRWP0At28/gLlw8coYezEZZaCGpDp6LI1CbNRuhIVuw6GY09gUWLw37NOR+QZipP8thM1cgAOZQrNKcwNRn3+AkNQmGD7Cv+jNU+ojWDFzB5JzdVBnRmLBot3IadUPAR76LZHA0sIClJ2BKzlCC1Inh19gEFpmhWLarL1I05+TVVcROa8vus86YsiuTHI/BAa1RFboNMzam4b8xSMxr293zDpSiSeKyBpj0ooZaP5XBm4Utixl8A0cCf9bYZi54ADyixyFzz8IQWqT4Rjh/xRXQGXW0aPkfoEIapmF0GmzsDe/knA1ch76dp+FihXzPo5u2ok04WJu9tQe6Nq1a+HQ56M5GF7rHLZ997vQatfLw4mwFYi6IQRudQZ+/CQY4aq26NenHqRVVd8CWeP+GOCbhU1zg3E0Sw1dbjJ2LQnDGTFSl3+8ydGkaUNIUi/gwsPfqqgvIPESwbtZEzGBMfaiMc5AbaBA3bZ9EThsADp5PU2LrxRSb4wP3Yh3zTfiNVdbWNu4oMtqFQZ9uxUfNi96i7PEvi1873yC1vYKWNXpga/u9MTSryeioSEGydDwtTfR8m4o+lavjsBd9yFrMh3fhY6E5faB8HKwg529JwbttkJAfz9DfmWTocn07xA60hLbB3rBwc4O9p6DsNsqAP39rMV5Kkbe7H2seN8PFsXuWUu9xyN047sw3/gaXG2tYePSBatVg/Dt1g9RrMiVVnYdlULWBNO/C8VIy+0Y6OUAOzt7eA7aDauA/qhQMf/6GZv2XEOjfgPR/OEGuOJlDH7dFZd2bEKUofEqRU3prxjhbQdrO1f0+fY+Xlu2GuMMP36uuvrWl2nq/y1Ht+vL0KW2FRT2bfBpbkM0LrjVXe7xJkHtXj3Q/GYUjiSWvBugTTmMY1cbonsvDzGFMfaiecFfc6lFTsZFpN+1gItnXdiVeudVh9xrF5H2lxXqetaG9UMBSHMnDUl/aFHD0x3VCxqm2hxkXkxDtrwWPNwcK/1uaG1OJi6mZUNeywNujlV0v7+AsG0ZF9Nx18IFnnXthHBVFcquo9IJdZ8pLJMtRy0PN1R1MXF/I/o6vAPdmj/xvzfv4WL6X7Cq64napWxcldW3vm6TryDX3hVeTpZiYnFlHG+6TIT280Vwna34fWVn6LvI6X/nfWKGH/qcHYfffxwH1wrVK2PsecPvo2bPp2KBOnx4JVvI/xB17CJ07haBHj8dwkfNzKBOWIpunbeiQ/gvmNdaIc7FGHvRGPGtb8aehgkkUikkj3RjN17yZjMQ+llthA39AIeyj2POkDWwnbcBH3GQZuyFxi1qxoyKGld/Pw9JUyfcjFWhgZ9rpb86YYw9XzhQM8YYY0aMb30zxhhjRowD9TOmUd3HffXjHpWVT3snDXHRMbh0K//Xv0ZHo8L9+0+zbRqo7t/HI9WgvYofvwxD9BNmXZG6LUvh8ppYbPoiHKmPeU4KY4z9kzhQP0vaFCzv4gCPcT/ljyaFYeLgGdiZXhBctLj83XA0quMBv05dMGZDGpLCJmLwjJ0onKVK6ZC1byFGdnkF/xkxCqNGFRveXYR9Ba+aLEGLlOVd4OAxThyvPG3KcnRx8MC4nww/bs6nu44fJvTE+MgcKJ7ky5eH6rbSSixvCc3x99FzzG5kPu7xsYwx9g/hQP03oge3kZF5DdkF8Ur9K1bN2wLVG9uR/tdtHJzqhge3M5B5LdvwpKyqR8iOCcfGY1cAqQwyWbFBKq3cM72fig43vp+OCT+3wvL1Y9H4n+4tJfNA0DdL8dKR9zBpc4awdYwxZjw4UP+NZL6TsfvoRrxjeDKWQHMFaRkSNH3lP3A2JMngO3k3jm58BwWzPAsmjh0xceUarFlTbFj9AXo4/U2HgyYOqxeFo+64Wehd3TgOQYljL3wwzg0/BX+J34o9spsxxv5pL2agVobjPb+XMObTBRjkVxf2llao0bAX5vx4ASdWDkO7+vawtHSEe4ex2JRU7AvU3HhsnNQdjZxtYGnjhIZdxiLk97/EiQLddRwO7o8WtW1hZV8PbYK+Qdy9ovu66tPB6N5yENZe1gqN6fl4tc2HOKRU4+jsNmjS5n3sV6lxOrg7Wg5aK74BSoc7p77GqE7eqGFtCTuXZug9YzuSCpvbaqTumY1+fvWEMljCvk4L9JsTgSvibXNlxBS08huOmTO7wdPBHp2/uJw/oUw6XD8cjP4tasPWyh712gThm7h7Jd7EpU7dg9n9/FDP3hKW9nXQot8cRBSsVKC7fhjB/Vugtq0V7Ou1EVqrcShWDVCf2oRtSc3xxpvFn9+uROLWqejh4wRrS3vU8euPhQezilq35dRteXVR/vJSeAwYgNbp27Hxl2dzP4Mxxp6I/udZxuhewmZ6v48fNfD2pS7vrKaTt7TilCqQG0YBZiZk4RNEq/dHU+zJ72lOlxokgYQc/N+nzcdj6czBr2molxnZ9d1A1/Wr1mbRzqC6ZO4aQMHhpyn+zD5aNsCTzJ360rpUjTCDhtJCelM1hScNWL6PTp2Nou2zu5KzVELOIyMMq1UenkhuCj9acF5D2uxLdOrQXOool1PHuQfp+K+JdFOrpMMT3Ujht4CEWUibHkqvO1lSo2Ff04Gz8XTqfwuop4sFNZx61JBf3uk51MLCmf4zP4LiUoT8Nr9LzSzsqFfIH4bpud/1I0sTKdV8eTwtC91KkeezKeHT1iSv+TaFPzDM8ghNWgj1rqYgzwHLad+psxS1fTZ1dZaSxHlk/gx5p2lOCwty/s98iohLoUunNtO7zSzIrlcI/aGvJ00ahfSuRgrPAbR83yk6G7WdZnd1JqnEmUZG6FeaR3GftCSFzwf0m8qQo0BLN8NHkpuVFw3+Ul93x2nj+JZk69CD1lSwbsuui/KXN8iLoTm+Cmo446SYwBhj/zzjDNR3f6ax7qZkov9S1TBIqPrrofmBoCoYArUZ9V53R0wgerD3bXKS1aBhewoiWB6dndOczDwm0TEhoGiSFpO/uTMN2XlbnC7I2U9jXM2o6UfRlKe5QMHtFOQcuJuyxcn6E//sZvJSA7VB7kbqq1BQQFhu/jgVD9QaOi8EVUXdd+jHe+JkIeBc3jCGur+91jCmSjlC23Ycp3QxO9JcpM9fMqPa7/xoGDUEavkrtKKw4jSGQG1qIiMzCwuyKBxsqX1wgjBVQxeC25HCOZB2FxWCYmY3I3lBoFal0JFtO+h40Urp4ucvkVltYTuVwtiFYGqncKbAogyEaphNzeQFgfoB7RxsR4rua+lm/mRhocu0vJNlybrLFeq2rjm1X5Kiz7Tcui2zLiqwfL4c2vi6JVkEbBDHGWPsn2eUt77VMRGITM8rdrtVh5uRe3Gsiu9ISmVFb/I3sTCHQuoKL6+CNBMozM1golZDLWyI6mw04skXHV+xF6cLrPzRoYUcyWdicDcvEQnJgE+btrARJ8PEGtZWT9pFS4Xz8foMW6F14fsdpKgftAY/rnvHMCZ3a4/2NWLxxZBX0a55Y/j4dMLCk3nQaot1GZdYwdrmod2s6IR5kUdx9GjBcBBrh9cXcs9DYn4h0LaoELC2tirqaCZ3Q/v2NRD7xRC82q45Gvv4oNPCk8gT1qkV6ikvMQHJ8EGbogyEarBGUTUoceevBzC1soa5mIK8s4iOU0FyNQJzJ0/GZP0waweSdRqkJgnbU4G6LbMuKrxvZLCxsYT2brY4zhhj/zyjDNTS6jXhKCl5EpVUq4maVdnBysRE/19J+jTxz0doNNAIJ3LTotgukEBmKgFphWk6LTRCTJCZyqqsUrWGDGXFvsct6f7xWejeaxESvN7GZ+t3Yu++bZjkV2IDS2ViUwc+Lfzg51cwtERDp/znSeev0xSyxxXi/nHM6t4LixK88PZn67Fz7z5sm+SHwrUKdaHV19NjM5BCKuxbrbZY32qdEko1DMto9fVsGBTwCRiDoA4uwgzl123ZdVHxfaMT9iNMnmFPPsYYq6SqiilVSuo9CnMnNIedGKxNLDwxaP776PgP/oxH7t0Q7pSAmDPFmvWaBMQmKFHLyxu2cnd41CNcOp8gtIULCK3xPPHPSpPBzaMuKOUCEgv7s+nw56EvMH3RHuFvNWL3hCPZNQgL5ryFjr4N4O7qCMVjrzQqQgZ3j3qgS+eRUKzns7pYIdSxexCe7IqgBXPwVkdfNHB3hWOxlcrcPVCPLuF8yQyEtnoBU1SvYQfdnVu4UxCrZfXh5iKBaaOhWLpqFVYVDiuxaGhjfabl1G05dVHu8gUe4PbtBzAXLhQZY8xYGGWghqQ6eiyNQmzUboSFbsOhmNPYFFi8h/DfT+YbiJH+txA2cwEOZAqRU3MDUZ9/gJDUJhg+wh9mssboP8AXWZvmIvhoFtS6XCTvWoKwM08aqeVoMfgt+P4RhvmropGt0+Hepf9h7pTZ2JGqf5GxFDWca0CSfgThJ65DrczE8VUz8U10HjR5Za+T7v+J9ItJSEoqNiSn4U+lDI37D4Bv1ibMDT6KLLUOucm7sCTsTGGgldZwRg1JOo6En8B1tRKZx1dh5jfRyNPkGeaRNe6PAb5Z2DQ3GEez1NDlJmPXkjAUVYMcTZo2hCT1Ai4UpMn9EBjUElmh0zBrb5rhN+Sqq5GY17c7Zh3J0WdaTt2WUxcV3Tdq4aLoEsG7WRMxgTHGjID4XfWLRd+ZTKGgvhsLOnERKQ+OI1dFG1qUWNRJ6kJwW1LUHUsHlGLKlb30Yec6ZG6qICtzUzJz9qeJ2y5RYeflB+do7eAGZC2VkKmpKdk1GUgBvmZP2JlMP66ipO/epdY1zcjU3JxMZbbU8M0v6GRBH7i7v9LinvXI3MSETExMqZpfEA1ua0Xy9ksMkw2dyRR9aP1dw6hA7ExW2Emv2CDzoim/6EvygM6tHUwNrKUkEcpgateEBgb4CmUVO5PRXfp1cU+qZ65fpwmZVvOjoMFtyUrenpak5Jfrwbm1NLiBNUklwvKmdtRkYAD5mhV0JtP381pM/lbNaHZMnmHcIO8y7ZraiVyEejW3tSVzMwdqOuQrOpMjTi+nbsuri3KXF2gSFlJrixY0N7bYdjHG2D+M355VaVrkZFxE+l0LuHjWhZ2+cVuCfnoyruTaw9XLCYX9wJ6GOhvpKZlQ2bvCw8nyodsgGty5chEZake4e9RAVb25WJuTgeQrubB39YKwykdo7lzBxQw1HN09UKO0lWpzkJF8BbnCNns9nIEuE6H9fBFcZyt+X9kZVmKynjYnExfTsiGv5QE3x4e/6yivbsuri7KWV+LEDD/0OTsOv/84Dq78NTVjzEhwoGb/CHXsInTuFoEePx3CR83++TcuqxOWolvnregQ/gvmta6qyx3GGHt6HKjZP0SDS6FvodfSWvj6ty/Q2UJM/ieojuPDtm/jwrt7sH2MD+RiMmOMGQMO1OwfpMbV389D4tsctf/JW826a4g9o0IDP1f88217xhgriQM1Y4wxZrSA/weL8tM7u8NwYwAAAABJRU5ErkJggg==;" vertex="1" parent="WIyWlLk6GJQsqaUBKTNV-1">
          <mxGeometry x="316.21" y="-190" width="357.57" height="162" as="geometry" />
        </mxCell>
      </root>
    </mxGraphModel>
  </diagram>
</mxfile>
